<?xml version="1.0" encoding="UTF-8"?>
<svg viewBox="0 0 1000 1000" xmlns="http://www.w3.org/2000/svg">
 <path d="m261.23 241.48c209.94-192.57 443.76-194.95 509.86-192.1 54.62 2.3575 100.81 8.0024 121.59 12.397 34.724 7.3432 25.195 7.327 46.702 33.008 21.507 25.68 34.249 26.987 35.022 68.388 0.638 34.21 5.9807 206.33-60.35 357.28-66.33 150.95-113.03 188.58-173.28 243.84-60.249 55.265-197.58 142.87-350.57 174.12-79.269 16.188-298.03 7.6502-312.03-10.338-5.6351-8.2619-14.159-17.489-20.93-22.506-15.188-16.558-25.366-51.217-26.948-79.868-1.5814-28.651-13.148-189.89 60.548-346.12s170.39-238.1 170.39-238.1z" stroke="#391b0f" stroke-width="2"/>
 <g fill="#fff">
  <path d="m82.755 491.52c-17.329 40.267-29.251 80.502-37.386 118.39 4.8183 9.889 10.692 21.773 12.387 24.378 2.6562 4.079 9.8658 7.23 9.8658 7.23s-0.2423 5.671 6.7906 13.339c7.033 7.667 100.31 117.63 135.92 158.82 35.608 41.19 60.581 66.049 63.827 69.588 1.86 2.027 5.426 4.429 8.253 6.176 15.543-4.298 40.828-11.574 59.3-18.331 25.785-9.432 41.733-15.98 51.254-20.168-0.92899-3.527-2.819-8.44-6.471-10.992-6.048-4.226-101.42-104.61-149.42-160.5-48.002-55.886-118.77-135.42-122.01-138.96-3.245-3.539-3.423-13.194-3.423-13.194s-2.974 3.818-10.499-5.57c-7.5254-9.388-13.348-19.236-15.955-24.447-0.6299-1.259-1.4808-3.352-2.4226-5.756z"/>
  <path d="m553.32 74.767c7.64 1.441 16.468 3.7036 22.299 7.0919 10.118 5.8785 7.23 4.2466 15.934 12.553 6.158 5.8757 3.649 6.7997 1.645 6.8467 3.426 0.196 12.985 0.993 15.66 3.91 3.246 3.539 82.226 81.738 133.77 134.38 51.541 52.64 131.27 147.86 134.96 154.25 1.939 3.359 5.356 5.891 8.191 7.579 6.302-11.345 20.928-38.305 29.719-59.927 6.415-15.778 11.614-29.352 15.137-38.681-0.263-4.254-0.85998-8.284-2.195-9.739-3.246-3.539-55.746-68.375-93.713-107.4-37.968-39.025-101.23-98.674-108.27-106.34-7.033-7.6676-17.783-8.1621-17.783-8.1621s-0.39404-6.5863-4.195-9.6282c-7.626-6.1026-16.851-9.38-24.794-11.164-36.085 3.6608-79.184 10.878-126.37 24.434z"/>
 </g>
 <g fill="none" stroke="#000" stroke-dasharray="32.00000151,4.00000018" stroke-width="4">
  <path d="m147.14 539.94c-7.18-0.31-10.212-1.468-5.623-12.574 4.59-11.105 28.106-103.6 170.41-234.13s251.72-165.88 266.66-166.78c14.938-0.89601 9.5 6.062 8.032 16.275s6.213 46.51-7.294 61.855-21.576 23.731-21.576 23.731 5.258-14.673-5.047-25.908c-10.305-11.234-97.696 25.584-208.44 127.16s-134.58 142.17-131.06 155.68c3.265 12.506 32.733 3.468 32.733 3.468s-5.346 16.725-18.587 25.915c-23.592 16.376-80.216 25.311-80.216 25.311z" opacity=".343"/>
  <path d="m105.07 476.32c-0.30988 7.1798-2.6101 18.66 6.1444 12.096 9.6136-7.2092 36.686-88.328 178.99-218.86s230.02-164.15 243.43-170.79c10.836-5.3691-3.3463-7.3538-15.127-5.4223-49.723 8.1524-178.29 80.412-249.82 153.84-120.84 119.45-150.3 188.03-163.62 229.14z" opacity=".343"/>
 </g>
 <g stroke="#760E0E">
  <path d="m143.45 449.04c-4.65-5.116-5.487-8.092 0.886-18.556 6.372-10.463 14.698-20.834 21.395-27.856 6.698-7.022 14.232-11.067 18.93-17.205 4.697-6.139 11.721-19.997 18.465-27.996 6.745-7.999 19.907-17.159 23.069-21.903 3.163-4.743 7.071-14.835 19.396-26.972s20.371-16.648 24.464-20.368 7.303-9.44 19.163-22.089 19.86-16.183 26.511-22.228c6.65-6.045 4.419-10.557 20.139-22.042 15.72-11.486 25.626-13.95 31.765-19.53 6.14-5.581 11.489-15.114 23.581-22.368s21.394-7.3 29.486-12.787c8.093-5.487 13.395-14.044 21.999-19.996 8.605-5.952 33.254-19.948 39.579-19.157s10.696 1.489 15.346 6.606c4.651 5.116-4.791 8.091-13.348 13.067-8.558 4.975-18.232 12.834-22.325 16.554s-16.371 14.881-22.417 18.508-18.557 9.393-29.115 15.252c-10.557 5.858-15.395 14.927-25.58 23.251-10.186 8.323-26.138 14.414-30.278 19.111-4.139 4.697-16.558 18.788-22.185 23.903-5.628 5.115-18.278 13.811-23.395 18.461-5.116 4.65-16.651 20.741-22.743 25.344-6.093 4.604-16.232 11.951-23.953 19.903s-12.186 19.485-20.419 27.902c-8.232 8.417-18.371 15.765-25.115 23.763-6.745 7.999-8.094 15.765-15.908 25.671-7.814 9.905-15.953 16.369-23.209 24.832-7.256 8.464-12.512 16.044-16.279 23.206-3.768 7.162-6.373 10.463-9.116 6.417-2.744-4.046-8.789-10.697-8.789-10.697v-9.77e-4z" fill="#eee"/>
  <g fill="#fff">
   <path d="m135.21 439.8c-2.2082-2.9499-5.2046-5.6742 1.4143-14.731 6.6188-9.0565 9.5016-9.7105 11.214-7.3011 1.7125 2.4095 10.568 13.691 17.732 22.045 7.1649 8.3539 18.632 19.229 21.854 22.742 3.2218 3.5126 3.2908 7.9272 3.3598 12.342 0.069107 4.4146 0.72305 7.2974-5.2008 6.2632s-11.803-3.1045-18.291-9.0937c-6.4885-5.9891-20.682-19.836-23.634-23.597-2.9517-3.7605-8.4488-8.6688-8.4488-8.6688z"/>
   <path d="m173.5 388.25c-1.938-3.1977-2.5026-8.1526 1.077-12.929 3.5796-4.7761 5.8082-8.313 8.1282-7.9533 2.32 0.35962 3.7846 2.4989 6.2406 5.7189 2.456 3.2201 6.332 9.6154 15.254 19.343 8.9221 9.7272 15.5 13.644 19.218 17.697 3.7175 4.053 9.5743 6.6414 8.6296 10.493-0.94475 3.8518-1.3938 8.244-4.2989 9.4161s-12.478 0.49945-19.98-6.0525c-7.5022-6.5519-19.555-15.895-24.759-21.57-5.2046-5.6742-9.5091-14.164-9.5091-14.164z"/>
   <path d="m298.59 246.45c-1.2951-2.3861-0.64923-6.5525 2.7474-9.6681s6.5489-11.368 10.715-10.722c4.1664 0.64584 6.1508 8.6541 12.867 15.002 6.7163 6.3483 23.224 23.372 30.021 27.86 6.7966 4.4876 8.0516 7.804 8.8213 11.566 0.76968 3.7615-0.32123 7.4427-3.1925 9.1829-2.8712 1.7402-5.7023 2.5501-15.695-3.4736-9.9925-6.0237-28.887-21.752-34.228-27.575-5.3409-5.8229-12.057-12.171-12.057-12.171z"/>
   <path d="m359.89 186.65c3.8819-3.5607 7.8474 1.7368 11.893 5.1737 4.0459 3.4369 26.34 26.769 31.236 32.106 4.8959 5.3377 12.258 7.5196 11.572 12.616-0.686 5.0968 2.0246 7.0779-2.3023 10.153-4.3269 3.0755-11.81 3.6846-17.596-2.6236s-25.855-27.214-29.901-30.651c-4.0459-3.4369-11.328-7.4794-13.553-9.9056-2.2254-2.4262-5.9065-3.5172-1.0541-7.968l9.7046-8.9018z"/>
   <path d="m416.35 152.73c4.7318-1.6599 8.858-0.083603 14.684 5.2941 5.8262 5.3778 28.201 26.849 31.316 30.246 3.1156 3.3967 7.4057 11.97 6.7599 16.137-0.64584 4.1664-6.0235 9.9927-11.08 8.3764-5.0565-1.6164-11.974-3.313-15.778-12.332-3.8049-9.0188-23.144-25.233-26.705-29.115-3.5606-3.882-7.9277 0.12381-11.488-3.7581-3.5606-3.8819-4.3705-6.7131 0.40152-9.3033s11.89-5.5452 11.89-5.5452z"/>
   <path d="m267.22 271.66c4.3269-3.0755 4.5311 2.9918 8.577 6.4286 4.0458 3.4369 25.61 22.077 32.246 30.286s10.682 11.646 8.0148 19.453c-2.667 7.8074-3.5974 7.7673-12.74 3.6444-9.1425-4.1229-17.478-16.134-25.53-23.938-8.0515-7.804-15.698-14.192-20.149-19.045-4.4508-4.8524-2.4697-7.5631 0.44168-10.234 2.9114-2.6705 9.1391-6.596 9.1391-6.596z"/>
   <path d="m467.02 123.23c7.118-2.955 11.81-3.685 16.301 0.237s31.922 27.01 35.402 32.752c3.48 5.743 7.325 13.832 5.749 17.958s0.004028 10.719-11.364 4.17-18.205-10.107-23.061-16.375c-4.855-6.268-9.43-19.048-16.672-24.021s-9.182-3.192-11.893-5.174c-2.711-1.981 1.292-8.332 1.292-8.332l4.246-1.215z"/>
   <path d="m219.46 319.93c3.3966-3.1156 2.9114-2.6705 8.2523 3.1524 5.341 5.8229 7.0811 8.6942 14.647 16.943 7.5663 8.2492 10.397 7.4393 15.738 13.262 5.3409 5.8229 9.9122 7.8844 12.502 12.656 2.5902 4.7721 3.0352 5.2574 0.93368 10.759-2.1015 5.5017-12.375 5.9903-23.137-3.7948-10.762-9.7852-31.761-30.731-35.282-35.543-3.5205-4.8123-1.9042-9.8689 0.48184-11.164s5.8629-6.2714 5.8629-6.2714z"/>
  </g>
 </g>
</svg>
